cover 
http://a.imageshack.us/img80/8658/87f75eb820182afc3a05c2e.jpg

Genre: Comedy
Language:English
IMDb:http://www.imdb.com/title/tt0979434/
Source:DVD

General
Complete name :Lottery.Ticket.2010.DvDRip.Ac3.Feel-Free
Format : AVI
Format/Info : Audio Video Interleave
File size : 1.12 GiB
Duration : 1h 39mn
Overall bit rate : 1 625 Kbps
Video #0
Codec ID : XVID
Codec ID/Hint : XviD
Duration : 1h 39mn
Bit rate : 1 232 Kbps
Width : 688 pixels
Height : 288 pixels
Display aspect ratio : 2.35:1
Frame rate : 23.976 fps
Resolution : 24 bits
Colorimetry : 4:2:0
Scan type : Progressive
Bits/(Pixel*Frame) : 0.259
Stream size : 873 MiB (76%)
Writing library : XviD 1.2.1 (UTC 2008-12-04)
Audio #1
ID : 1
Format : AC-3
Format/Info : Audio Coding 3
Codec ID : 2000
Duration : 1h 39mn
Bit rate mode : Constant
Bit rate : 384 Kbps
Channel(s) : 6 channels
Channel positions : Front: L C R, Surround: L R, LFE
Sampling rate : 48.0 KHz
Stream size : 272 MiB (24%)
Alignment : Split accross interleaves
Interleave, duration : 42 ms (1.00 video frame)
Interleave, preload duration : 500 ms

Plot:
Kevin Carson is a young man living in the projects who has to survive a three-day weekend after his opportunistic neighbors find out he's holding a winning lottery ticket worth $370 million.


screens 
http://img513.imageshack.us/img513/3247/lotteryticket2010dvdrip.jpg 
http://img641.imageshack.us/img641/3247/lotteryticket2010dvdrip.jpg 
http://img812.imageshack.us/img812/3247/lotteryticket2010dvdrip.jpg 
http://img707.imageshack.us/img707/3247/lotteryticket2010dvdrip.jpg 
http://img225.imageshack.us/img225/3247/lotteryticket2010dvdrip.jpg 
http://img812.imageshack.us/img812/2774/lotteryticket2010dvdripk.jpg